<svg width="24" height="24" viewBox="0 0 24 24" fill="none" xmlns="http://www.w3.org/2000/svg">
<path d="M3.34653 21.5776H20.6534C22.7427 21.5776 23.8075 20.533 23.8075 18.4637V7.94701C23.8075 5.87782 22.7427 4.84321 20.6534 4.84321H18.3029C17.5195 4.84321 17.2784 4.6825 16.8264 4.18025L16.0128 3.27622C15.5207 2.7238 15.0084 2.42242 13.9637 2.42242H9.96595C8.93133 2.42242 8.41906 2.7238 7.91686 3.27622L7.10322 4.18025C6.66128 4.67242 6.41018 4.84321 5.62666 4.84321H3.34653C1.25725 4.84321 0.192505 5.87782 0.192505 7.94701V18.4637C0.192505 20.533 1.25725 21.5776 3.34653 21.5776ZM16.2539 16.1133L14.3655 13.6222C14.1044 13.2807 14.2751 12.8388 14.6769 12.8388H16.0329C16.0329 10.3879 14.3555 8.68025 11.995 8.68025C11.2517 8.68025 10.649 8.86107 10.0363 9.19252C9.35322 9.52402 8.83092 9.13227 8.83092 8.6401C8.83092 8.39898 8.9414 8.12782 9.2327 7.94701C9.87556 7.55525 10.88 7.21372 11.995 7.21372C15.1992 7.21372 17.5195 9.54408 17.5195 12.8388H18.7148C19.1266 12.8388 19.2774 13.2707 19.0162 13.6222L17.1177 16.1133C16.9068 16.3945 16.4849 16.4046 16.2539 16.1133ZM11.995 18.2528C8.79072 18.2528 6.48046 15.8119 6.48046 12.6278H5.28513C4.86325 12.6278 4.72268 12.1858 4.9838 11.8343L6.88225 9.34321C7.09319 9.07201 7.51508 9.05191 7.73605 9.34321L9.63449 11.8343C9.89562 12.1858 9.72488 12.6278 9.31306 12.6278H7.95702C7.95702 14.9581 9.63449 16.7762 11.995 16.7762C12.7483 16.7762 13.361 16.5955 13.9537 16.274C14.6568 15.9224 15.159 16.3443 15.159 16.8566C15.159 17.0977 15.0385 17.3287 14.7572 17.5195C14.1245 17.9314 13.0999 18.2528 11.995 18.2528Z" fill="#000"/>
</svg>
