<svg width="24" height="24" viewBox="0 0 24 24" fill="none" xmlns="http://www.w3.org/2000/svg">
<g id="Iconly/Light/Image 3">
<g id="Image 2">
<path id="Stroke 1" fill-rule="evenodd" clip-rule="evenodd" d="M16.3028 2.7498H7.65076C4.63876 2.7498 2.74976 4.8838 2.74976 7.9038V16.0498C2.74976 19.0698 4.63076 21.2038 7.65076 21.2038H16.2978C19.3228 21.2038 21.2028 19.0698 21.2028 16.0498V7.9038C21.2068 4.8838 19.3258 2.7498 16.3028 2.7498Z" stroke="#000" stroke-width="1.5" stroke-linecap="round" stroke-linejoin="round"/>
<path id="Stroke 3" fill-rule="evenodd" clip-rule="evenodd" d="M10.7031 8.785C10.7031 9.805 9.87711 10.631 8.85711 10.631C7.83811 10.631 7.01111 9.805 7.01111 8.785C7.01111 7.765 7.83811 6.939 8.85711 6.939C9.87611 6.94 10.7021 7.766 10.7031 8.785Z" stroke="#000" stroke-width="1.5" stroke-linecap="round" stroke-linejoin="round"/>
<path id="Stroke 5" d="M21.207 14.951C20.284 14.001 18.509 12.082 16.579 12.082C14.648 12.082 13.535 16.315 11.678 16.315C9.821 16.315 8.134 14.401 6.646 15.628C5.158 16.854 3.75 19.361 3.75 19.361" stroke="#000" stroke-width="1.5" stroke-linecap="round" stroke-linejoin="round"/>
</g>
</g>
</svg>
