<svg width="24" height="24" viewBox="0 0 24 24" fill="none" xmlns="http://www.w3.org/2000/svg">
<path fill-rule="evenodd" clip-rule="evenodd" d="M6.11304 4.5H11.9051C14.3271 4.5 16.0181 6.16904 16.0181 8.56091V15.4391C16.0181 17.831 14.3271 19.5 11.9051 19.5H6.11304C3.69102 19.5 2 17.831 2 15.4391V8.56091C2 6.16904 3.69102 4.5 6.11304 4.5ZM19.958 6.87898C20.397 6.65563 20.912 6.67898 21.331 6.94294C21.75 7.20589 22 7.66274 22 8.16223V15.8384C22 16.3389 21.75 16.7947 21.331 17.0577C21.102 17.2008 20.846 17.2739 20.588 17.2739C20.373 17.2739 20.158 17.2231 19.957 17.1206L18.476 16.3734C17.928 16.0952 17.588 15.5369 17.588 14.9165V9.08305C17.588 8.46173 17.928 7.90335 18.476 7.62721L19.958 6.87898Z" fill="#AAAAAA"/>
<path d="M11.101 11.0879H9.89795V9.91162C9.89795 9.40945 9.49521 9 8.99897 9C8.50377 9 8.1 9.40945 8.1 9.91162V11.0879H6.89897C6.40274 11.0879 6 11.4973 6 11.9995C6 12.5016 6.40274 12.9111 6.89897 12.9111H8.1V14.0884C8.1 14.5906 8.50377 15 8.99897 15C9.49521 15 9.89795 14.5906 9.89795 14.0884V12.9111H11.101C11.5962 12.9111 12 12.5016 12 11.9995C12 11.4973 11.5962 11.0879 11.101 11.0879Z" fill="#000"/>
</svg>
