<svg width="180" height="179" viewBox="0 0 180 179" fill="none" xmlns="http://www.w3.org/2000/svg">
<path d="M67.145 0.67592C66.266 1.13302 64.1563 3.62949 59.7611 9.4663C56.3856 13.9318 53.5024 17.7292 53.3617 17.8699C53.2211 18.0105 48.3688 18.2918 42.5671 18.5379C31.3155 18.9599 31.0342 19.0302 29.4167 20.9641C28.3619 22.2299 28.1509 23.0386 26.5335 33.2355C25.6544 38.6855 24.8809 43.151 24.8457 43.1862C24.8106 43.2213 20.9076 45.5068 16.1608 48.2143C10.746 51.3436 7.12433 53.6643 6.4211 54.4379C4.34657 56.7937 4.41689 57.4266 8.14401 68.6783L11.4492 78.629L5.89368 87.3842C2.79946 92.3068 0.267836 96.702 0.12719 97.3701C-0.365071 100.007 0.338159 101.097 6.45626 106.969C9.55047 109.993 12.9963 113.298 14.0863 114.353L16.0905 116.287L15.2115 126.73L14.3324 137.208L15.1412 138.861C15.6334 139.81 16.4421 140.795 17.0399 141.146C17.6376 141.463 22.2789 142.939 27.4125 144.416C32.5461 145.858 36.9413 147.194 37.1874 147.335C37.4336 147.475 39.4026 151.695 41.5123 156.688C43.6571 161.716 45.6965 166.251 46.0481 166.779C46.9272 167.974 48.9665 168.959 50.584 168.924C51.2872 168.924 56.1746 168.045 61.484 166.92C69.8525 165.197 71.1534 165.021 71.6809 165.443C75.8651 169.029 86.5893 177.609 87.5387 178.066C89.0858 178.874 90.9142 178.874 92.4613 178.066C93.4107 177.609 104.135 169.029 108.319 165.443C108.847 165.021 110.148 165.197 118.516 166.92C123.825 168.045 128.713 168.924 129.416 168.924C131.033 168.959 133.073 167.974 133.952 166.779C134.304 166.251 136.343 161.716 138.488 156.688C140.597 151.695 142.566 147.475 142.813 147.335C143.059 147.194 147.454 145.858 152.587 144.416C157.721 142.939 162.398 141.463 162.96 141.146C163.558 140.795 164.367 139.81 164.859 138.861L165.668 137.208L164.789 126.73L163.909 116.287L165.914 114.353C167.004 113.298 170.45 109.993 173.544 106.969C179.662 101.097 180.365 100.007 179.873 97.4052C179.767 96.7371 177.165 92.2716 174.106 87.4193L168.551 78.6641L171.856 68.6783C175.583 57.4266 175.653 56.7937 173.579 54.4379C172.876 53.6643 169.219 51.3436 163.874 48.2494C159.128 45.542 155.225 43.2565 155.189 43.2213C155.119 43.151 154.346 38.6855 153.467 33.2355C152.623 27.7854 151.744 22.9683 151.568 22.4761C150.97 20.9641 149.212 19.5225 147.419 19.1357C146.505 18.9247 142.25 18.6434 137.995 18.5379C133.741 18.4325 129.451 18.2567 128.432 18.1512L126.603 17.9402L120.45 9.71243C117.039 5.21176 113.875 1.2385 113.382 0.92205C112.855 0.605597 111.695 0.253988 110.745 0.148503C109.128 0.00785705 108.495 0.253987 99.7046 4.43821C94.571 6.86435 90.211 8.86855 90 8.86855C89.789 8.86855 85.6048 6.96983 80.7525 4.61401C71.0128 -0.0273128 69.4305 -0.519571 67.145 0.67592ZM120.661 54.7895C123.122 56.0553 130.612 61.5053 131.209 62.4898C131.702 63.2986 131.842 64.0018 131.737 65.4082C131.596 67.2366 130.963 68.2563 111.589 97.2294C100.584 113.685 91.0549 127.785 90.3868 128.523C87.8903 131.301 84.9719 131.899 81.6667 130.387C80.19 129.683 77.4122 127.046 66.8989 116.392C48.6149 97.8623 48.5094 97.7568 48.1578 96.2449C47.6304 93.9242 48.2633 92.7639 52.6585 88.1929C57.6866 82.9538 58.003 82.7077 60.4643 82.7077H62.3631L72.6302 92.9397L82.8974 103.172L98.8256 79.3322C109.62 63.2282 115.14 55.3169 115.844 54.8598C117.145 54.0862 119.219 54.0511 120.661 54.7895Z" fill="#000"/>
</svg>
